<?xml version="1.0" encoding="UTF-8" standalone="no"?>
<svg xmlns="http://www.w3.org/2000/svg" xmlns:xlink="http://www.w3.org/1999/xlink" width="40px" height="40px" viewBox="0 0 40 40" version="1.1"><title>Very</title><desc>Your unique vanillicon is crafted with love by the team at vanillaforums.com.</desc><defs/><g id="vanillicon" stroke="none" stroke-width="1" fill="none" fill-rule="evenodd"><rect id="background" fill="#F4624C" x="-2" y="-2" width="44" height="44"/><g id="avatar" transform="rotate(-8, 20, 20) translate(3.000000, 3.000000)"><g id="body" transform="translate(1.000000, 1.000000)" fill="#B4DEC4"><circle id="b" cx="16" cy="16" r="16"/><path d="M24.5,1.5 L26.5,8.5 L31.5,3 L24.5,1.5 Z" id="r" transform="translate(28.000000, 5.000000) scale(-1, 1) translate(-28.000000, -5.000000) "/><path d="M0.5,1.5 L2.5,8.5 L7.5,3 L0.5,1.5 Z" id="l"/></g><g id="eyes" transform="translate(9.000000, 11)" fill="#5C5A64"><path d="M2.5,5 C3.88071187,5 5,3.88071187 5,2.5 C5,1.11928813 3.88071187,0 2.5,0 C1.11928813,0 0,1.11928813 0,2.5 C0,3.88071187 1.11928813,5 2.5,5 Z" id="left_eye"/><circle id="right_eye" cx="13.5" cy="2.5" r="2.5"/></g><g id="mouth" transform="translate(6.000000, 18.000000)" fill="#5C5A64"><path d="M6,9 C8.04115394,9 10.5000003,7.50000006 11.0000003,6.50000006 C11.5000003,7.50000006 13.958846,9 16,9 C20.9016769,9 23.9242933,4.46607606 20.6523328,0.539723401 C20.1219867,-0.0966919453 19.1761396,-0.182678041 18.5397243,0.347668081 C17.9033089,0.878014202 17.8173228,1.82386125 18.3476689,2.4602766 C19.7979308,4.20059082 18.5983245,6 16,6 C14.9786539,6 14.1065574,5.48320208 13.351671,4.55411107 C13.0648528,4.20110414 12.8195315,3.81628636 12.6194336,3.43209839 C12.5028026,3.2081669 12.4311271,3.04433717 12.4044938,2.97331487 C11.9178364,1.67556173 10.0821637,1.67556171 9.59550623,2.97331484 C9.56887287,3.04433715 9.49719736,3.20816688 9.38056637,3.43209837 C9.18046847,3.81628634 8.93514713,4.20110413 8.648329,4.55411106 C7.89344255,5.48320208 7.02134606,6 6,6 C3.40167626,6 2.20207011,4.20059077 3.65233192,2.4602766 C4.18267804,1.82386125 4.09669195,0.878014202 3.4602766,0.347668081 C2.82386125,-0.182678041 1.8780142,-0.0966919453 1.34766808,0.539723401 C-1.92429233,4.4660759 1.09832374,9 6,9 Z" id="mouth"/></g><g id="circle" fill="#5C5A64"><path d="M1.49461102,1.46173693 C0.945302524,1.48286904 0.475903005,1.95704137 0.461736917,2.49461104 C0.461736917,2.49461104 -1.00299467e-08,8.00000011 2.49999998,10.4999998 C2.49999998,10.4999998 7.50000002,5.5 9.50000001,3.50000001 C6.99999999,1.00000002 1.49461102,1.46173693 1.49461102,1.46173693 Z M4.5,7.5 C3.00000002,5.99999996 3.04242827,4.48629307 3.04242827,4.48629307 C3.01899579,4.21772082 3.22660638,4.01290267 3.49791209,4.04524294 C3.49791209,4.04524294 5,4 6.50000006,5.53953457 C6.16963542,6.01573659 4.5,7.5 4.5,7.5 Z" id="l"/><path d="M32.505389,1.46173692 C33.0546975,1.48286904 33.524097,1.95704135 33.5382631,2.49461102 C33.5382631,2.49461102 34,7.99999999 31.5,10.5 C31.5,10.5 26.4999995,5.49999998 24.4999995,3.49999999 C27,0.999999991 32.505389,1.46173692 32.505389,1.46173692 Z M29.5,7.50000004 C31,6 30.9575717,4.48629308 30.9575717,4.48629308 C30.9810042,4.21772083 30.7733936,4.01257133 30.5020879,4.04408112 C30.5020879,4.04408112 29,3.99999999 27.5,5.50000004 L29.5,7.50000004 Z" id="r"/><path d="M34,17 C34,7.61115925 26.3888407,0 17,0 C7.61115925,0 0,7.61115925 0,17 C0,26.3888407 7.61115925,34 17,34 C26.3888407,34 34,26.3888407 34,17 Z M3,17 C3,9.2680135 9.2680135,3 17,3 C24.7319865,3 31,9.2680135 31,17 C31,24.7319865 24.7319865,31 17,31 C9.2680135,31 3,24.7319865 3,17 Z" id="c"/></g></g></g></svg>
